<?xml version="1.0" standalone="no"?>
<!DOCTYPE svg PUBLIC "-//W3C//DTD SVG 20010904//EN"
 "http://www.w3.org/TR/2001/REC-SVG-20010904/DTD/svg10.dtd">
<svg version="1.0" xmlns="http://www.w3.org/2000/svg"
 width="130.000000pt" height="127.000000pt" viewBox="0 0 130.000000 127.000000"
 preserveAspectRatio="xMidYMid meet">
<metadata>
Created by potrace 1.16, written by Peter Selinger 2001-2019
</metadata>
<g transform="translate(0.000000,127.000000) scale(0.100000,-0.100000)"
fill="#efefef" stroke="none">
<path d="M354 1201 c-11 -12 -1 -20 29 -23 l32 -3 3 -92 3 -92 -68 -33 c-86
-42 -180 -133 -215 -208 -125 -270 38 -547 362 -616 76 -16 283 -15 323 1 12
5 17 2 17 -9 0 -14 16 -16 109 -16 63 0 112 4 116 10 6 10 -1 14 -47 24 -27 6
-28 9 -28 69 0 55 4 67 30 99 42 51 82 143 88 200 5 56 29 67 34 16 2 -22 9
-34 21 -36 16 -3 18 3 15 55 -3 57 -4 58 -32 58 -27 0 -31 5 -46 55 -9 30 -25
70 -34 89 -24 46 -100 126 -145 153 -20 12 -49 34 -64 49 -27 27 -28 30 -25
126 l3 98 28 3 c15 2 27 9 27 16 0 18 -192 16 -198 -2 -2 -8 7 -12 26 -12 37
0 42 -12 42 -96 l0 -64 -135 0 -136 0 3 78 c3 76 3 77 31 80 15 2 27 9 27 16
0 9 -25 12 -96 12 -52 0 -97 -3 -100 -5z m636 -428 c29 -36 73 -150 63 -165
-2 -5 -39 -8 -82 -8 l-77 0 -16 63 c-9 34 -19 72 -23 85 -6 17 -3 22 10 22 9
0 28 9 42 20 36 28 47 25 83 -17z m-646 12 c8 -8 22 -15 31 -15 13 0 16 -5 10
-22 -4 -13 -14 -53 -23 -90 l-17 -68 -44 0 -44 0 6 59 c5 61 39 151 56 151 5
0 16 -7 25 -15z m186 -57 l60 -12 0 -63 0 -63 -95 0 c-104 0 -102 -2 -84 65
18 69 31 96 45 91 7 -3 40 -11 74 -18z m292 -39 c27 -87 26 -91 -32 -88 -27 2
-53 0 -56 -4 -4 -4 -25 -7 -46 -7 l-38 0 0 65 c0 61 2 65 23 66 12 0 42 6 67
13 25 7 49 12 55 11 5 -1 17 -26 27 -56z m-472 -172 c0 -13 9 -50 20 -83 24
-74 25 -69 -4 -82 -22 -10 -27 -7 -49 27 -25 38 -57 120 -57 146 0 11 12 15
45 15 41 0 45 -2 45 -23z m240 -40 l0 -63 -67 -14 c-38 -8 -72 -15 -77 -15
-11 0 -31 56 -41 113 l-7 42 96 0 96 0 0 -63z m142 38 c4 -32 21 -34 28 -3 5
18 14 24 44 26 l38 3 -7 -42 c-10 -58 -30 -114 -41 -114 -5 0 -39 7 -76 15
l-68 14 0 63 0 63 39 0 c35 0 40 -3 43 -25z"/>
</g>
</svg>
